<?xml version="1.0" encoding="UTF-8" standalone="no"?>
<svg
   version="1.1"
   viewBox="0.0 0.0 960.0 540.0"
   fill="none"
   stroke="none"
   stroke-linecap="square"
   stroke-miterlimit="10"
   id="svg1636"
   sodipodi:docname="logo.svg"
   inkscape:version="1.1.2 (b8e25be8, 2022-02-05)"
   xmlns:inkscape="http://www.inkscape.org/namespaces/inkscape"
   xmlns:sodipodi="http://sodipodi.sourceforge.net/DTD/sodipodi-0.dtd"
   xmlns="http://www.w3.org/2000/svg"
   xmlns:svg="http://www.w3.org/2000/svg">
  <defs
     id="defs1640" />
  <sodipodi:namedview
     id="namedview1638"
     pagecolor="#ffffff"
     bordercolor="#666666"
     borderopacity="1.0"
     inkscape:pageshadow="2"
     inkscape:pageopacity="0.0"
     inkscape:pagecheckerboard="0"
     showgrid="false"
     inkscape:zoom="1.1739583"
     inkscape:cx="480"
     inkscape:cy="279.82254"
     inkscape:window-width="1296"
     inkscape:window-height="969"
     inkscape:window-x="0"
     inkscape:window-y="25"
     inkscape:window-maximized="0"
     inkscape:current-layer="g1634" />
  <clipPath
     id="p.0">
    <path
       d="m0 0l960.0 0l0 540.0l-960.0 0l0 -540.0z"
       clip-rule="nonzero"
       id="path1595" />
  </clipPath>
  <g
     clip-path="url(#p.0)"
     id="g1634">
    <path
       fill="#ffffff"
       d="m0 0l960.0 0l0 540.0l-960.0 0z"
       fill-rule="evenodd"
       id="path1598" />
    <path
       fill="#000000"
       fill-opacity="0.0"
       d="m319.29135 168.47244l316.34647 0l0 132.50394l-316.34647 0z"
       fill-rule="evenodd"
       id="path1600" />
    <path
       fill="#000000"
       d="m330.8851 239.18181q3.515625 -0.09375 5.71875 -1.890625q2.21875 -1.796875 2.9375 -4.9375q0.734375 -3.15625 0.78125 -10.765625q0.046875 -7.609375 0.265625 -10.015625q0.421875 -3.828125 1.53125 -6.15625q1.125 -2.328125 2.765625 -3.71875q1.640625 -1.390625 4.1875 -2.109375q1.734375 -0.46875 5.65625 -0.46875l2.546875 0l0 7.15625l-1.421875 0q-4.734375 0 -6.28125 1.71875q-1.546875 1.703125 -1.546875 7.625q0 11.9375 -0.5 15.09375q-0.828125 4.875 -2.8125 7.515625q-1.96875 2.640625 -6.21875 4.6875q5.015625 2.09375 7.265625 6.40625q2.265625 4.3125 2.265625 14.10939q0 8.875 0.1875 10.5625q0.359375 3.109375 1.828125 4.328125q1.484375 1.234375 5.8125 1.234375l1.421875 0l0 7.15625l-2.546875 0q-4.46875 0 -6.484375 -0.734375q-2.90625 -1.046875 -4.828125 -3.390625q-1.90625 -2.34375 -2.484375 -5.953125q-0.5625 -3.59375 -0.609375 -11.796875q-0.046875 -8.203125 -0.78125 -11.343765q-0.71875 -3.140625 -2.9375 -4.96875q-2.203125 -1.828125 -5.71875 -1.921875l0 -7.421875zm290.47354 0l0 7.421875q-3.515625 0.09375 -5.734375 1.921875q-2.203125 1.828125 -2.9375 4.953125q-0.71875 3.1093903 -0.765625 10.718765q-0.046875 7.609375 -0.265625 10.03125q-0.421875 3.875 -1.546875 6.171875q-1.109375 2.296875 -2.75 3.6875q-1.640625 1.390625 -4.1875 2.125q-1.734375 0.5 -5.65625 0.5l-2.546875 0l0 -7.15625l1.40625 0q4.75 0 6.296875 -1.71875q1.546875 -1.703125 1.546875 -7.671875q0 -11.390625 0.40625 -14.437515q0.734375 -5.0625 2.921875 -8.09375q2.1875 -3.03125 6.203125 -4.71875q-5.25 -2.5 -7.390625 -6.625q-2.140625 -4.125 -2.140625 -13.921875q0 -8.890625 -0.21875 -10.625q-0.328125 -3.046875 -1.8125 -4.25q-1.46875 -1.21875 -5.8125 -1.21875l-1.40625 0l0 -7.15625l2.546875 0q4.46875 0 6.484375 0.734375q2.90625 1.0 4.8125 3.375q1.921875 2.375 2.484375 5.96875q0.578125 3.59375 0.625 11.796875q0.046875 8.203125 0.765625 11.328125q0.734375 3.125 2.9375 4.953125q2.21875 1.8125 5.734375 1.90625z"
       fill-rule="nonzero"
       id="path1602"
       style="fill:#a700ff;fill-opacity:1" />
    <path
       fill="#a4c2f4"
       d="m371.52493 201.979l40.472443 0l0 83.1496l-40.472443 0z"
       fill-rule="evenodd"
       id="path1604" />
    <path
       stroke="#ffffff"
       stroke-width="1.0"
       stroke-linejoin="round"
       stroke-linecap="butt"
       d="m371.52493 201.979l40.472443 0l0 83.1496l-40.472443 0z"
       fill-rule="evenodd"
       id="path1606" />
    <path
       fill="#000000"
       d="m396.03168 263.77005l0 -9.140625q-0.75 1.03125 -2.078125 1.71875q-1.328125 0.6875 -2.8125 0.6875q-3.328125 0 -5.734375 -2.65625q-2.390625 -2.65625 -2.390625 -7.28125q0 -2.8125 0.96875 -5.03125q0.984375 -2.234375 2.828125 -3.390625q1.859375 -1.15625 4.078125 -1.15625q3.46875 0 5.453125 2.921875l0 -2.5l2.84375 0l0 25.828125l-3.15625 0zm-9.765625 -16.546875q0 3.609375 1.515625 5.40625q1.515625 1.796875 3.625 1.796875q2.015625 0 3.46875 -1.703125q1.46875 -1.71875 1.46875 -5.21875q0 -3.71875 -1.546875 -5.59375q-1.53125 -1.890625 -3.609375 -1.890625q-2.046875 0 -3.484375 1.75q-1.4375 1.75 -1.4375 5.453125z"
       fill-rule="nonzero"
       id="path1608" />
    <path
       fill="#a4c2f4"
       d="m413.82678 201.979l40.472443 0l0 83.1496l-40.472443 0z"
       fill-rule="evenodd"
       id="path1610" />
    <path
       stroke="#ffffff"
       stroke-width="1.0"
       stroke-linejoin="round"
       stroke-linecap="butt"
       d="m413.82678 201.979l40.472443 0l0 83.1496l-40.472443 0z"
       fill-rule="evenodd"
       id="path1612" />
    <path
       fill="#000000"
       d="m438.66162 256.6138l0 -2.75q-2.1875 3.171875 -5.921875 3.171875q-1.65625 0 -3.09375 -0.625q-1.421875 -0.640625 -2.125 -1.59375q-0.6875 -0.96875 -0.96875 -2.359375q-0.203125 -0.921875 -0.203125 -2.953125l0 -11.5625l3.171875 0l0 10.359375q0 2.46875 0.1875 3.34375q0.296875 1.234375 1.265625 1.953125q0.96875 0.71875 2.390625 0.71875q1.421875 0 2.671875 -0.734375q1.25 -0.734375 1.765625 -1.984375q0.53125 -1.265625 0.53125 -3.65625l0 -10.0l3.15625 0l0 18.671875l-2.828125 0z"
       fill-rule="nonzero"
       id="path1614" />
    <path
       fill="#a4c2f4"
       d="m456.1273 201.979l40.472443 0l0 83.1496l-40.472443 0z"
       fill-rule="evenodd"
       id="path1616" />
    <path
       stroke="#ffffff"
       stroke-width="1.0"
       stroke-linejoin="round"
       stroke-linecap="butt"
       d="m456.1273 201.979l40.472443 0l0 83.1496l-40.472443 0z"
       fill-rule="evenodd"
       id="path1618" />
    <path
       fill="#000000"
       d="m481.50903 250.59818l3.265625 0.40625q-0.765625 2.859375 -2.859375 4.453125q-2.09375 1.578125 -5.34375 1.578125q-4.09375 0 -6.5 -2.515625q-2.40625 -2.53125 -2.40625 -7.078125q0 -4.71875 2.421875 -7.3125q2.4375 -2.609375 6.296875 -2.609375q3.75 0 6.125 2.546875q2.375 2.546875 2.375 7.171875q0 0.28125 -0.015625 0.84375l-13.921875 0q0.171875 3.078125 1.734375 4.71875q1.5625 1.625 3.90625 1.625q1.734375 0 2.96875 -0.90625q1.234375 -0.921875 1.953125 -2.921875zm-10.390625 -5.109375l10.421875 0q-0.203125 -2.359375 -1.1875 -3.53125q-1.515625 -1.828125 -3.921875 -1.828125q-2.1875 0 -3.671875 1.453125q-1.484375 1.453125 -1.640625 3.90625z"
       fill-rule="nonzero"
       id="path1620" />
    <path
       fill="#a4c2f4"
       d="m498.43045 201.979l40.472443 0l0 83.1496l-40.472443 0z"
       fill-rule="evenodd"
       id="path1622" />
    <path
       stroke="#ffffff"
       stroke-width="1.0"
       stroke-linejoin="round"
       stroke-linecap="butt"
       d="m498.43045 201.979l40.472443 0l0 83.1496l-40.472443 0z"
       fill-rule="evenodd"
       id="path1624" />
    <path
       fill="#000000"
       d="m523.2653 256.6138l0 -2.75q-2.1875 3.171875 -5.921875 3.171875q-1.65625 0 -3.09375 -0.625q-1.421875 -0.640625 -2.125 -1.59375q-0.6875305 -0.96875 -0.9687805 -2.359375q-0.203125 -0.921875 -0.203125 -2.953125l0 -11.5625l3.1719055 0l0 10.359375q0 2.46875 0.1875 3.34375q0.296875 1.234375 1.265625 1.953125q0.96875 0.71875 2.390625 0.71875q1.421875 0 2.671875 -0.734375q1.25 -0.734375 1.765625 -1.984375q0.53125 -1.265625 0.53125 -3.65625l0 -10.0l3.15625 0l0 18.671875l-2.828125 0z"
       fill-rule="nonzero"
       id="path1626" />
    <path
       fill="#a4c2f4"
       d="m540.7323 201.979l40.472412 0l0 83.1496l-40.472412 0z"
       fill-rule="evenodd"
       id="path1628" />
    <path
       stroke="#ffffff"
       stroke-width="1.0"
       stroke-linejoin="round"
       stroke-linecap="butt"
       d="m540.7323 201.979l40.472412 0l0 83.1496l-40.472412 0z"
       fill-rule="evenodd"
       id="path1630" />
    <path
       fill="#000000"
       d="m566.114 250.59818l3.265625 0.40625q-0.765625 2.859375 -2.859375 4.453125q-2.09375 1.578125 -5.34375 1.578125q-4.09375 0 -6.5 -2.515625q-2.40625 -2.53125 -2.40625 -7.078125q0 -4.71875 2.421875 -7.3125q2.4375 -2.609375 6.296875 -2.609375q3.75 0 6.125 2.546875q2.375 2.546875 2.375 7.171875q0 0.28125 -0.015625 0.84375l-13.921875 0q0.171875 3.078125 1.734375 4.71875q1.5625 1.625 3.90625 1.625q1.734375 0 2.96875 -0.90625q1.234375 -0.921875 1.953125 -2.921875zm-10.390625 -5.109375l10.421875 0q-0.203125 -2.359375 -1.1875 -3.53125q-1.515625 -1.828125 -3.921875 -1.828125q-2.1875 0 -3.671875 1.453125q-1.484375 1.453125 -1.640625 3.90625z"
       fill-rule="nonzero"
       id="path1632" />
  </g>
</svg>
